G04 MADE WITH FRITZING*
G04 WWW.FRITZING.ORG*
G04 DOUBLE SIDED*
G04 HOLES PLATED*
G04 CONTOUR ON CENTER OF CONTOUR VECTOR*
%ASAXBY*%
%FSLAX23Y23*%
%MOIN*%
%OFA0B0*%
%SFA1.0B1.0*%
%ADD10C,0.075000*%
%ADD11C,0.082000*%
%ADD12C,0.393700*%
%ADD13R,0.075000X0.075000*%
%ADD14R,0.196850X0.039370*%
%ADD15R,0.082000X0.082000*%
%ADD16C,0.048000*%
%ADD17C,0.024000*%
%LNCOPPER0*%
G90*
G70*
G54D10*
X923Y640D03*
X923Y1040D03*
X523Y540D03*
X923Y540D03*
X1123Y1040D03*
X1123Y1140D03*
X1123Y1240D03*
G54D11*
X323Y840D03*
X323Y542D03*
G54D10*
X523Y1140D03*
X823Y1140D03*
X523Y1040D03*
X823Y1040D03*
X523Y940D03*
X823Y940D03*
X523Y840D03*
X823Y840D03*
X923Y1140D03*
X923Y1540D03*
G54D12*
X323Y240D03*
X323Y1740D03*
G54D10*
X323Y1440D03*
X323Y1040D03*
G54D13*
X923Y640D03*
X523Y540D03*
X1123Y1240D03*
G54D14*
X1523Y940D03*
X1523Y1240D03*
G54D15*
X323Y841D03*
G54D13*
X523Y1140D03*
X923Y1140D03*
X323Y1440D03*
G54D16*
X823Y1139D02*
X807Y1116D01*
D02*
X895Y1140D02*
X823Y1139D01*
G54D17*
D02*
X522Y1240D02*
X523Y1169D01*
D02*
X895Y1540D02*
X823Y1541D01*
D02*
X823Y1341D02*
X525Y1341D01*
D02*
X823Y1541D02*
X823Y1341D01*
D02*
X525Y1341D02*
X522Y1240D01*
D02*
X924Y1139D02*
X932Y1113D01*
D02*
X923Y1069D02*
X924Y1139D01*
G54D16*
D02*
X1152Y1240D02*
X1430Y1240D01*
G54D17*
D02*
X924Y539D02*
X924Y612D01*
D02*
X944Y520D02*
X924Y539D01*
D02*
X323Y840D02*
X323Y1012D01*
D02*
X291Y840D02*
X323Y840D01*
D02*
X524Y1038D02*
X536Y1015D01*
D02*
X352Y1040D02*
X524Y1038D01*
G54D16*
D02*
X1123Y1042D02*
X952Y1040D01*
D02*
X1111Y1066D02*
X1123Y1042D01*
D02*
X453Y240D02*
X1523Y238D01*
D02*
X1523Y238D02*
X1523Y926D01*
G04 End of Copper0*
M02*