M48
INCH
T10C0.035000
T11C0.042000
T12C0.236220
%
T10
X003233Y010401
X003233Y014401
X009233Y015401
X009233Y011401
X008233Y008401
X005233Y008401
X008233Y009401
X005233Y009401
X008233Y010401
X005233Y010401
X008233Y011401
X005233Y011401
X011233Y012401
X011233Y011401
X011233Y010401
X009233Y005401
X005233Y005401
X009233Y010401
X009233Y006401
T11
X003233Y005421
X003233Y008401
T12
X003233Y017401
X003233Y002401
T00
M30
