G04 MADE WITH FRITZING*
G04 WWW.FRITZING.ORG*
G04 DOUBLE SIDED*
G04 HOLES PLATED*
G04 CONTOUR ON CENTER OF CONTOUR VECTOR*
%ASAXBY*%
%FSLAX23Y23*%
%MOIN*%
%OFA0B0*%
%SFA1.0B1.0*%
%ADD10C,0.075000*%
%ADD11C,0.082000*%
%ADD12C,0.393700*%
%ADD13R,0.075000X0.075000*%
%ADD14R,0.082000X0.082000*%
%ADD15C,0.024000*%
%ADD16C,0.048000*%
%LNCOPPER1*%
G90*
G70*
G54D10*
X923Y640D03*
X923Y1040D03*
X523Y540D03*
X923Y540D03*
X1123Y1040D03*
X1123Y1140D03*
X1123Y1240D03*
G54D11*
X323Y840D03*
X323Y542D03*
G54D10*
X923Y1140D03*
X923Y1540D03*
X523Y1140D03*
X823Y1140D03*
X523Y1040D03*
X823Y1040D03*
X523Y940D03*
X823Y940D03*
X523Y840D03*
X823Y840D03*
G54D12*
X323Y240D03*
X323Y1740D03*
G54D10*
X323Y1440D03*
X323Y1040D03*
G54D13*
X923Y640D03*
X523Y540D03*
X1123Y1240D03*
G54D14*
X323Y841D03*
G54D13*
X923Y1140D03*
X523Y1140D03*
X323Y1440D03*
G54D15*
X1025Y1139D02*
X1025Y1541D01*
D02*
X1095Y1140D02*
X1025Y1139D01*
D02*
X1025Y1541D02*
X952Y1540D01*
D02*
X725Y639D02*
X725Y940D01*
D02*
X725Y940D02*
X552Y940D01*
D02*
X895Y640D02*
X725Y639D01*
D02*
X523Y569D02*
X523Y812D01*
D02*
X495Y540D02*
X355Y542D01*
D02*
X323Y1611D02*
X323Y1469D01*
G54D16*
D02*
X824Y1169D02*
X829Y1438D01*
D02*
X829Y1438D02*
X352Y1440D01*
G04 End of Copper1*
M02*